# xmcd
#
# Track frame offsets:
#	150
#	17201
#	44187
#	68016
#	81171
#	98168
#	127089
#	149866
#	158187
#	169593
#
# Disc length: 2649 seconds
#
# Revision: 1
# Processed by: cddbd v1.5.1PL2 Copyright (c) Steve Scherf et al.
# Submitted via: audiograbber 1.82.02
#
DISCID=910a570a
DTITLE=Mr. Hurricane Band - Hard Driving
DYEAR=1900
DGENRE=
TTITLE0=Hard Driving
TTITLE1=Bad case of love
TTITLE2=pepper
TTITLE3=On es l'Andreu?
TTITLE4=Get the blues!
TTITLE5=Keep walking
TTITLE6=Slow down
TTITLE7=Del gaucho
TTITLE8=The bis is leaving
TTITLE9=Four on the road
EXTD=
EXTT0=
EXTT1=
EXTT2=
EXTT3=
EXTT4=
EXTT5=
EXTT6=
EXTT7=
EXTT8=
EXTT9=
PLAYORDER=
